<svg width="29" height="23" viewBox="0 0 29 23" fill="none" xmlns="http://www.w3.org/2000/svg">
<path d="M28.0275 2.70365C26.9811 3.17051 25.8703 3.47638 24.7273 3.60517C25.9347 2.88073 26.8362 1.75384 27.2548 0.417663C26.1279 1.0938 24.8883 1.56066 23.6004 1.81823C21.4432 -0.499952 17.8049 -0.612641 15.4707 1.54456C13.9574 2.94513 13.3296 5.05403 13.7964 7.06634C9.17615 6.84097 4.87785 4.65157 1.94792 1.0616C1.67424 1.52846 0.032197 6.71218 1.56155 11.0105C2.91383 14.8258 7.35702 17.804 8.51611 17.8201C6.10133 19.7198 3.04262 20.573 0 20.2027C2.62406 21.8931 5.68277 22.7946 8.82198 22.7946C19.3987 22.7946 25.1942 14.037 25.1942 6.4224C25.1942 6.18093 25.1942 5.92335 25.1781 5.68187C26.2889 4.87695 27.2548 3.86274 28.0275 2.70365ZM20.3163 4.82865C19.5436 4.82865 18.8996 4.20081 18.8996 3.41198C18.8996 2.62316 19.5275 1.99532 20.3163 1.99532C21.089 1.99532 21.733 2.62316 21.733 3.41198C21.733 4.20081 21.1051 4.82865 20.3163 4.82865Z" fill="#1DA1F2"/>
<path d="M27.9631 8.8321C27.2387 9.17017 26.4659 9.37945 25.661 9.49214C26.4981 8.97698 27.1099 8.18816 27.3997 7.25444C26.6269 7.7374 25.7576 8.07547 24.8722 8.25255C23.3428 6.6588 20.7993 6.5944 19.2055 8.13986C18.1752 9.13797 17.7406 10.6029 18.0947 12.0035C14.8589 11.8747 11.8485 10.3937 9.7718 7.91448C9.59471 8.23645 8.48391 11.8747 9.57861 14.8529C10.5606 17.4931 13.6837 19.5376 14.4887 19.5376C12.8305 20.8738 10.6894 21.5016 8.56441 21.2762C10.4157 22.4353 12.5568 23.031 14.7301 22.9988C22.1032 22.9022 26.0635 16.7365 25.9991 11.4401C25.9991 11.263 25.983 11.0859 25.983 10.9249C26.7557 10.3615 27.4319 9.65312 27.9631 8.8321ZM22.5862 10.3776C22.0389 10.3776 21.6042 9.94289 21.5881 9.41164C21.5881 8.86429 22.0228 8.42963 22.554 8.41354C23.1014 8.41354 23.536 8.8482 23.5521 9.37945C23.5682 9.9268 23.1336 10.3776 22.5862 10.3776Z" fill="#7ECEFF"/>
</svg>
