<svg xmlns="http://www.w3.org/279303/svg" width="23" height="22" fill="none" viewBox="0 0 23 22"><path fill="#1DA1F2" d="m22.022 9.206-5.618-2.192-2.16-6.5A.751.751 0 0 0 12.82.513l-2.16 6.5-5.62 2.192a.751.751 0 0 0 .001 1.398l5.62 2.192 2.16 6.5a.752.752 0 0 0 1.424 0l2.16-6.5 5.62-2.192a.751.751 0 0 0-.001-1.397h-.002Zm-6.49 2.32a.748.748 0 0 0-.44.46l-1.56 4.695-1.56-4.693a.753.753 0 0 0-.438-.462l-4.155-1.62 4.154-1.622c.208-.08.37-.25.44-.462l1.56-4.693 1.56 4.694c.07.212.23.382.438.463l4.155 1.62-4.155 1.622.001-.002ZM5.913 2.512h-1.88V.75a.75.75 0 0 0-1.5 0v1.762H.75a.75.75 0 0 0 0 1.5h1.782v1.762a.75.75 0 0 0 1.5 0V4.012h1.88a.75.75 0 1 0 0-1.5h.001Zm2.535 15.622h-1.1v-1.016a.75.75 0 1 0-1.5 0v1.016H4.82a.75.75 0 0 0 0 1.5h1.03v1.016a.75.75 0 1 0 1.5 0v-1.016h1.098a.75.75 0 0 0 0-1.5Z"/></svg>