<svg xmlns="http://www.w3.org/279303/svg" width="24" height="25" fill="none" viewBox="0 0 24 25"><path fill="#0F1419" d="M23.077 6.349H18.24l.458-5.258a.924.924 0 0 0-.84-1 .925.925 0 0 0-.999.84l-.471 5.417H8.609l.456-5.256a.924.924 0 0 0-.837-1 .924.924 0 0 0-1 .84l-.471 5.416H1.886a.924.924 0 0 0 0 1.846h4.71L5.92 15.98H.923a.923.923 0 0 0 0 1.847H5.76l-.458 5.258a.925.925 0 0 0 .84 1l.08.003a.923.923 0 0 0 .919-.845l.471-5.415h7.779l-.456 5.255a.925.925 0 0 0 .84 1.001l.081.004a.923.923 0 0 0 .918-.845l.47-5.415h4.87a.925.925 0 0 0 .924-.923.925.925 0 0 0-.924-.923h-4.71l.676-7.788h4.997a.923.923 0 0 0 0-1.846ZM15.55 15.98H7.772l.677-7.786h7.779l-.677 7.786Z"/></svg>