<svg xmlns="http://www.w3.org/279303/svg" width="25" height="26" fill="none" viewBox="0 0 25 26"><path fill="#0F1419" d="M24.625 18.215c-.025-.02-2.675-2.045-2.629-7.518.025-3.157-1.015-5.962-2.934-7.899-1.719-1.737-4.047-2.697-6.553-2.71h-.017C9.987.102 7.66 1.062 5.94 2.8c-1.918 1.937-2.96 4.74-2.933 7.898.047 5.399-2.525 7.44-2.627 7.518a.935.935 0 0 0 .558 1.687h6.151c.128 2.88 2.497 5.187 5.413 5.187 2.917 0 5.283-2.307 5.41-5.187h6.153a.932.932 0 0 0 .887-.64.93.93 0 0 0-.329-1.046h.003Zm-12.123 5A3.547 3.547 0 0 1 8.967 19.9h7.07a3.55 3.55 0 0 1-3.535 3.316v-.002ZM2.976 18.03c.925-1.412 1.936-3.776 1.906-7.352-.023-2.693.805-4.964 2.391-6.567 1.366-1.38 3.225-2.144 5.23-2.153 2.003.01 3.859.773 5.225 2.155 1.588 1.602 2.416 3.872 2.394 6.567-.03 3.576.981 5.94 1.907 7.35H2.976Z"/></svg>