<svg xmlns="http://www.w3.org/279303/svg" width="20" height="22" fill="none" viewBox="0 0 20 22"><path fill="#1DA1F2" d="M15.701 1.1h-1.3V.8c0-.4-.3-.8-.8-.8-.4 0-.8.3-.8.8v.3h-7.4V.8c0-.4-.3-.8-.8-.8-.4 0-.8.3-.8.8v.3h-1.3c-1.4 0-2.5 1.1-2.5 2.5v13.1c0 1.4 1.1 2.5 2.5 2.5h2.9c.4 0 .8-.3.8-.8 0-.4-.3-.8-.8-.8h-2.9c-.6 0-1-.5-1-1V6.8c0-.3.4-.7 1-.7h13.2c.6 0 1 .4 1 .7v1.8c0 .4.3.8.8.8.4 0 .8-.3.8-.8v-5c-.1-1.4-1.2-2.5-2.6-2.5Zm1 3.7c-.3-.1-.7-.2-1-.2h-13.2c-.4 0-.7.1-1 .2V3.6c0-.6.5-1 1-1h1.3v.5c0 .4.3.8.8.8.4 0 .8-.3.8-.8v-.5h7.5v.5c0 .4.3.8.8.8.4 0 .8-.3.8-.8v-.5h1.2c.6 0 1 .5 1 1v1.2Z"/><path fill="#1DA1F2" d="M13.201 9.3c-3.4 0-6.2 2.8-6.2 6.2 0 3.4 2.8 6.2 6.2 6.2 3.4 0 6.2-2.8 6.2-6.2 0-3.4-2.8-6.2-6.2-6.2Zm0 11c-2.6 0-4.7-2.1-4.7-4.7s2.1-4.7 4.7-4.7 4.7 2.1 4.7 4.7c0 2.5-2.1 4.7-4.7 4.7Z"/><path fill="#1DA1F2" d="M16.601 17.6c-.1.2-.4.4-.6.4-.1 0-.3 0-.4-.1l-3.1-2v-3c0-.4.3-.8.8-.8.4 0 .8.3.8.8v2.2l2.4 1.5c.2.2.3.6.1 1Z"/></svg>