<svg xmlns="http://www.w3.org/2000/svg" viewBox="0 0.645 61.8 31.03"><path d="M.9 15.675s4.4.4 7.3 3.3l.6.6c3.5 3.6 12 12.1 22.1 12.1 10.2 0 18.6-8.5 22.2-12.2l.6-.6c2.9-2.9 7.3-3.3 7.3-3.3.4 0 .8-.4.8-.8s-.3-.8-.8-.8c-.1 0-7.1-.7-12.8-7.9-1.4-1.9-5.6-5.1-10.3-5.4-2.7-.2-5 .6-7 2.3-2-1.7-4.3-2.5-6.9-2.3-4.7.3-8.9 3.5-10.4 5.4-5.6 7.2-12.7 7.9-12.8 7.9-.4 0-.8.4-.8.8.1.5.4.8.9.9Zm14.1-8.6c1.4-1.8 5.2-4.4 9.1-4.7 2.4-.1 4.5.6 6.2 2.4.3.3.9.3 1.2 0 1.7-1.7 3.8-2.5 6.2-2.4 3.9.2 7.7 2.9 9.1 4.7 3.6 4.5 7.6 6.7 10.4 7.7-1.5.6-3.3 1.5-4.8 3l-.6.6c-3.5 3.5-11.6 11.7-21 11.7s-17.5-8.2-21-11.7l-.6-.6c-1.5-1.5-3.3-2.4-4.8-3 3-1 7-3.1 10.6-7.7Z"/><path d="M15.9 15.975s3.4.8 5.9 1.3c1.5.3 2.5.6 3.4.8 1.5.5 2.8.8 5.7.8 2.8 0 4.2-.4 5.7-.9.9-.3 1.9-.6 3.4-.8 2.6-.5 5.9-1.3 5.9-1.3.3-.1.6-.4.6-.7 0-.3-.1-.7-.4-.9-3.2-1.7-5.4-2.6-7.9-3.2-2.6-.6-4.1 0-5.3.5-.7.3-1.3.5-2.1.5s-1.4-.3-2.1-.5c-1.2-.5-2.7-1.1-5.3-.5-2.5.6-4.7 1.5-7.9 3.2-.3.2-.5.5-.4.9.2.4.5.7.8.8Zm8.1-3.1c2-.5 3.1 0 4.2.4.8.3 1.6.7 2.7.7s1.9-.3 2.8-.7c1.1-.5 2.2-.9 4.2-.4 1.8.4 3.4 1 5.4 2-1.1.2-2.4.5-3.6.7-1.6.2-2.6.6-3.6.8-1.4.4-2.6.8-5.2.8s-3.7-.3-5.2-.8c-.9-.3-2-.6-3.6-.9-1.2-.2-2.5-.5-3.6-.7 2.1-.9 3.7-1.5 5.5-1.9Z"/></svg>