<svg xmlns="http://www.w3.org/279303/svg" width="56" height="63" fill="none" viewBox="0 0 56 63"><path fill="#000" d="m54.35 6.894 1.4-5.4c.1-.5-.2-.9-.6-1-.5-.1-.9.2-1 .6l-.9 3.3c-1.2-1.6-2.9-2.4-4.8-2.3-1.6.1-3.1.9-3.9 2-1.5-1.4-3.9-1.7-5.8-1.2-2.1.5-4.1 1.8-4.6 3.9-1.3-.3-2.5-.2-3.6.4-1.1.5-2 1.4-2.7 2.6-.7-1.1-1.6-2-2.7-2.6-1.1-.5-2.3-.7-3.6-.4-.5-2-2.5-3.4-4.6-3.9-2-.5-4.3-.2-5.8 1.2-.8-1.1-2.3-1.9-3.9-2-1.8-.1-3.5.7-4.7 2.3l-.8-3.4c-.1-.4-.6-.7-1.1-.6-.4.1-.7.6-.6 1.1l1.4 5.4c2.6 11.4 7.7 14.8 11.6 15.7.8.2 1.6.3 2.5.3 5 0 9.8-3.1 12.4-5.9 2.6 2.9 7.5 5.9 12.4 5.9.8 0 1.7-.1 2.5-.3 3.8-.9 8.9-4.3 11.5-15.7Zm-37.6-2.4c1.2.3 2.4.9 3 1.9-2-.8-4.2-1.2-6.8-1.4 1-.7 2.5-.8 3.8-.5Zm-9.4-.7c1 .1 2 .5 2.5 1.2-1.9.1-3.9.3-6 .6 1.1-1.7 2.7-1.9 3.5-1.8Zm6 17.1c-4.7-1-8.1-5.7-10-13.6 12.6-2 19.9.5 23.6 8.2-2.7 3.1-8.3 6.6-13.6 5.4Zm13.7-8.5c-1-1.6-2.3-3-3.8-4 .4 0 .8.1 1.2.3 1.1.6 2.1 1.7 2.5 3.2v.2l.1.3Zm21.4-8.6c.7 0 2.3.1 3.5 1.8-2.2-.3-4.2-.5-6-.6.6-.7 1.5-1.1 2.5-1.2Zm-9.4.7c1.3-.3 2.8-.2 3.8.5-2.5.1-4.8.6-6.8 1.4.7-.9 1.8-1.6 3-1.9Zm-10.3 7.4c.5-1.5 1.4-2.7 2.5-3.2.5-.2.9-.3 1.3-.3-1.5 1.1-2.7 2.4-3.8 4v-.5Zm13.7 9c-5.2 1.2-10.9-2.3-13.5-5.4 3.7-7.7 11-10.2 23.6-8.2-2 7.9-5.5 12.6-10.1 13.6Zm6.4 24.4c.2 0 .5-.1.7-.2.2-.2.3-.4.3-.6v-8.1c0-.5-.4-.9-.9-.9H6.85c-.5.1-.8.4-.8.9v8.1c0 .2.1.5.3.6.2.2.4.2.7.2.5 0 1-.1 1.4-.1 8.6 0 16.1 7.5 16.1 16 0 .5.4.9.9.9h5.3c.5 0 .9-.4.9-.9 0-8.5 7.5-16 16.1-16 .2.1.6.1 1.1.1Zm-.9-8c-.4 1-1.3 1.8-2.5 1.8s-2.1-.8-2.5-1.8h5Zm-7 0c-.4 1-1.3 1.8-2.5 1.8s-2.1-.8-2.5-1.8h5Zm-7 0c-.4 1-1.3 1.8-2.5 1.8s-2.1-.8-2.5-1.8h5Zm-7 0c-.4 1-1.3 1.8-2.5 1.8s-2.1-.8-2.5-1.8h5Zm-7.1 0c-.4 1-1.3 1.8-2.5 1.8s-2.1-.8-2.5-1.8h5Zm-7 0c-.4 1-1.3 1.8-2.5 1.8s-2.1-.8-2.5-1.8h5Zm16.9 23.1h-3.7c-.5-9.1-8.6-16.8-17.7-16.8h-.7v-3.7c.7.6 1.7.9 2.7.9 1.4 0 2.7-.7 3.5-1.8.8 1.1 2.1 1.8 3.5 1.8s2.7-.7 3.5-1.8c.8 1.1 2.1 1.8 3.5 1.8.8 0 1.5-.2 2.2-.6-.5 1.7-1.6 3.2-3.7 3.2-.5 0-.9.4-.9.9s.4.9.9.9c2.4 0 4.1-1.3 5.1-3.7 1 2.4 2.7 3.7 5.1 3.7.5 0 .9-.4.9-.9s-.4-.9-.9-.9c-2.1 0-3.2-1.5-3.7-3.2.6.4 1.4.6 2.1.6 1.4 0 2.7-.7 3.5-1.8.8 1.1 2.1 1.8 3.5 1.8s2.7-.7 3.5-1.8c.8 1.1 2.1 1.8 3.5 1.8 1 0 1.9-.4 2.7-.9v3.7h-.7c-9.2 0-17.3 7.7-17.7 16.8Z"/></svg>