<svg xmlns="http://www.w3.org/2000/svg" viewBox="0.4 0 55 48"><path d="M27.941 1.424c1.457 0 2.767.712 3.495 1.994l21.99 37.176c.73 1.21.73 2.706 0 3.988a4.086 4.086 0 0 1-3.494 1.994H5.95c-1.457 0-2.767-.712-3.495-1.994-.729-1.211-.729-2.707 0-3.989L24.373 3.419c.728-1.282 2.04-1.994 3.568-1.994Zm0-1.424c-1.893 0-3.713.926-4.806 2.706L1.145 39.881C-.967 43.513 1.655 48 5.95 48h43.908c4.223 0 6.917-4.487 4.806-8.119L32.675 2.706C31.654.926 29.761 0 27.94 0Z"/><rect width="6" height="19" x="24.423" y="13" stroke="#000" stroke-linejoin="round" stroke-width="2" rx="2"/><circle cx="27.423" cy="39" r="3" stroke="#000" stroke-linejoin="round" stroke-width="2"/></svg>