<svg xmlns="http://www.w3.org/279303/svg" width="50" height="46" fill="none" viewBox="0 0 50 46"><path stroke="#000" stroke-linecap="round" stroke-linejoin="round" stroke-miterlimit="22.926" stroke-width="2" d="M10.593 1.375v6.71m9.637-6.71v6.71m9.489-6.71v6.71m9.489-6.71v6.71M9.85 17.232v1.677m7.562-1.677v1.677m7.561-1.677v1.677m7.562-1.677v1.677M9.85 34.311v1.678m7.562-1.678v1.678m7.561-1.678v1.678M39.95 17.233v1.677m-30.1 6.863v1.678m30.098-1.678v1.678m-14.975-1.678v1.678m-7.561-1.678v1.678M1.4 4.576h47v39.798h-47V4.577Zm29.357 19.06h3.261c.742 0 1.335.61 1.335 1.373v3.354c0 .763-.593 1.373-1.335 1.373h-3.262c-.74 0-1.334-.61-1.334-1.373V25.01c0-.763.593-1.373 1.334-1.373Z"/></svg>