<svg xmlns="http://www.w3.org/279303/svg" width="25" height="24" fill="none" viewBox="0 0 25 24"><path fill="#0F1419" d="M21.563.089H3.438C1.54.089 0 1.666 0 3.605v15.966c0 1.94 1.541 3.518 3.438 3.518h18.125c1.896 0 3.437-1.578 3.437-3.518V3.605C25 1.665 23.459.09 21.563.09ZM3.438 2.005h18.125c.862 0 1.562.716 1.562 1.598v.912l-10.062 6.858a.994.994 0 0 1-1.126-.003L1.876 4.515v-.912c0-.882.7-1.598 1.563-1.598ZM21.563 21.17H3.438c-.863 0-1.563-.715-1.563-1.597V6.762l9.05 6.171c.479.327 1.027.49 1.575.49a2.79 2.79 0 0 0 1.575-.489l9.05-6.171v12.806c0 .881-.7 1.597-1.562 1.597v.003Z"/></svg>