<svg xmlns="http://www.w3.org/279303/svg" width="33" height="63" fill="none" viewBox="0 0 33 63"><path fill="#000" d="M5.85 62.375h22.1c2.7 0 5-2.2 5-5 0-2.5-1.8-4.5-4.2-4.9l-.3-7.8h1.7c.5 0 .9-.4.9-.9s-.4-.9-.9-.9h-1.8l-.1-4.2h1.9c.5 0 .9-.4.9-.9s-.4-.9-.9-.9h-2l-.1-4.2h2.1c.5 0 .9-.4.9-.9s-.4-.9-.9-.9h-2.2l-.1-3.9h2.3c.5 0 .9-.4.9-.9s-.4-.9-.9-.9h-2.4l-.2-5c-.1-3.9-2.9-11.2-7.1-14.1-.3-3.2-1.7-5.4-3.6-5.4-1.8 0-3.3 2.2-3.6 5.5-4.2 2.9-7 10.2-7.1 14.1l-.2 5h-2.4c-.5 0-.9.4-.9.9s.4.9.9.9h2.3l-.1 4.2h-2.2c-.5 0-.9.4-.9.9s.4.9.9.9h2.1l-.1 4.2h-2c-.5 0-.9.4-.9.9s.4.9.9.9h1.9l-.1 4.2h-1.8c-.5 0-.9.4-.9.9s.4.9.9.9h1.7l-.3 7.8c-2.3 0-4.1 2.1-4.1 4.5 0 2.8 2.2 5 5 5Zm2-42c.1-3.6 2.8-10.5 6.7-12.9.2-.2.3-.4.3-.7.2-2.8 1.3-4.4 2-4.4s1.7 1.6 2 4.4c0 .3.2.5.4.7 3.8 2.4 6.6 9.4 6.7 12.9l.2 4.9H7.65l.2-4.9Zm-.2 6.6h18.5l.1 4.2H7.45l.2-4.2Zm-.2 5.9h18.9l.1 4.2H7.25l.2-4.2Zm-.2 6h19.3l.1 4.2H7.05l.2-4.2Zm-.3 5.9h19.7l.3 7.7H6.75l.2-7.7Zm-1.1 9.4h22.1c1.8 0 3.3 1.5 3.3 3.3 0 1.8-1.5 3.3-3.3 3.3H5.85c-1.8 0-3.3-1.5-3.3-3.3 0-1.8 1.5-3.3 3.3-3.3Z"/><path fill="#000" d="M11.45 13.975c-1.6 1.5-3.7 5.1-.6 8.4.2.2.4.3.6.3.2 0 .4-.1.6-.2.3-.3.4-.9.1-1.2-2.6-2.9.2-5.7.5-6 .3-.3.4-.9 0-1.2-.3-.4-.9-.4-1.2-.1Z"/></svg>