<svg xmlns="http://www.w3.org/279303/svg" width="28" height="25" fill="none" viewBox="0 0 28 25"><path fill="#1DA1F2" d="M27.341 6.694 14.598.23a1.333 1.333 0 0 0-1.199 0L.662 6.694C.05 7.007-.179 7.724.152 8.3a1.27 1.27 0 0 0 1.11.622c.201 0 .408-.045.598-.142l.926-.47L4.79 21.646c.272 1.439 1.652 2.444 3.355 2.444h11.706c1.702 0 3.082-1.005 3.357-2.475L25.21 8.31l.93.472c.611.312 1.377.097 1.707-.479.332-.576.101-1.295-.51-1.606l.003-.003ZM14 16.276c-2.264 0-4.1-1.724-4.1-3.852 0-2.127 1.836-3.852 4.1-3.852 2.263 0 4.098 1.725 4.098 3.852 0 2.128-1.835 3.852-4.098 3.852Z"/></svg>