<svg xmlns="http://www.w3.org/279303/svg" width="22" height="22" fill="none" viewBox="0 0 22 22"><path fill="#1DA1F2" d="M11.251 21.6C5.323 21.6.501 16.778.501 10.85S5.323.1 11.251.1s10.75 4.822 10.75 10.75-4.822 10.75-10.75 10.75Zm0-20c-5.1 0-9.25 4.15-9.25 9.25s4.15 9.25 9.25 9.25 9.25-4.15 9.25-9.25-4.15-9.25-9.25-9.25Z"/><path fill="#1DA1F2" d="M11.251 15.965a5.509 5.509 0 0 1-4.656-2.544.748.748 0 0 1 .226-1.035.747.747 0 0 1 1.036.226 4.02 4.02 0 0 0 3.395 1.855 4.024 4.024 0 0 0 3.396-1.854.747.747 0 0 1 1.036-.225c.35.224.45.688.226 1.036a5.516 5.516 0 0 1-4.658 2.545l-.001-.004Zm2.738-6.179a1.478 1.478 0 1 0 0-2.956 1.478 1.478 0 0 0 0 2.956Zm-5.476 0a1.478 1.478 0 1 0 0-2.956 1.478 1.478 0 0 0 0 2.956Z"/></svg>