<svg xmlns="http://www.w3.org/279303/svg" width="62" height="24" fill="none" viewBox="0 0 62 24"><path fill="#000" d="M19.4 17.21c.8.2 1.7.2 2.5.2 2.6 0 4.9-.9 6-2.5.2-.2.2-.6.1-.8-2.8-6.3-7.4-5.6-11.2-5.1-1.8.3-3.6.5-4.8-.1-.3-.1-.6-.1-.9.1-.3.2-.4.5-.3.9 1 4.3 5.1 6.6 8.6 7.3Zm-2.3-6.5c3.5-.5 6.9-1 9.1 3.7-1.2 1.2-3.7 1.7-6.4 1.2-2.5-.5-5.5-1.9-6.8-4.6 1.3.1 2.6-.1 4.1-.3Z"/><path fill="#000" d="M14.6 22.409c6 2.2 12.6 1.4 16.3-1.9 2.3 2 5.7 3.1 9.4 3.1 2.3 0 4.6-.4 6.9-1.2 4.1-1.5 13.7-6.6 14.5-21.5 0-.3-.2-.7-.5-.8-.3-.1-.7-.1-.9.2-5.7 5.5-9.8 4.3-14.1 3.1-4.3-1.2-9.1-2.6-15.3 3-6.2-5.6-11-4.2-15.3-3-4.3 1.2-8.3 2.3-14.1-3.2-.2-.2-.6-.3-.9-.1-.3.1-.5.5-.5.8.9 14.9 10.5 20 14.5 21.5Zm1.5-17.5c4.3-1.3 8.4-2.4 14.2 3.1.3.3.8.3 1.2 0 5.8-5.6 9.9-4.4 14.2-3.1 4.2 1.2 8.5 2.5 14.1-2-1.5 12.3-9.7 16.6-13.2 17.9-5.7 2.1-12 1.3-15.1-2-.2-.2-.4-.3-.6-.3-.2 0-.5.1-.6.3-3.2 3.3-9.4 4.1-15.1 2-3.5-1.3-11.7-5.6-13.2-17.9 5.6 4.5 9.9 3.2 14.1 2Z"/><path fill="#000" d="M40 17.41c.8 0 1.6-.1 2.5-.2 3.5-.7 7.6-3 8.6-7.3.1-.3 0-.7-.3-.9-.3-.2-.6-.2-.9-.1-1.2.6-3 .4-4.8.1-3.7-.5-8.4-1.2-11.1 5.1-.1.3-.1.6.1.8 1 1.7 3.3 2.5 5.9 2.5Zm4.8-6.7c1.4.2 2.8.4 4.1.2-1.3 2.7-4.2 4.1-6.8 4.6-2.7.5-5.2 0-6.4-1.2 2.2-4.6 5.6-4.1 9.1-3.6Z"/></svg>