<svg xmlns="http://www.w3.org/279303/svg" width="21" height="20" fill="none" viewBox="0 0 21 20"><path fill="#1DA1F2" d="M18.722 6.916h-1.334c.015-.09.028-.182.028-.277V4.326c0-.98-.797-1.777-1.778-1.777H2V1.114a.75.75 0 0 0-1.5 0v17.472a.75.75 0 1 0 1.5 0v-1.434h10.556a1.78 1.78 0 0 0 1.778-1.777v-2.313c0-.095-.014-.187-.028-.278h4.417a1.78 1.78 0 0 0 1.778-1.778v-2.31a1.78 1.78 0 0 0-1.778-1.78h-.001ZM15.64 4.049c.152 0 .277.124.277.277v2.31a.28.28 0 0 1-.278.28H2v-2.87h13.64v.003Zm-2.807 9.014v2.312a.278.278 0 0 1-.278.277H2v-2.868h10.556c.153 0 .277.126.277.28v-.001ZM19 11.006a.278.278 0 0 1-.278.277H2V8.416h16.722c.153 0 .278.124.278.277v2.313Z"/></svg>