<svg xmlns="http://www.w3.org/279303/svg" width="24" height="25" fill="none" viewBox="0 0 24 25"><path fill="#000" d="M13.294.089c.352 0 .668.22.787.548l.847 2.349c.303.075.564.15.785.23.24.086.552.217.936.396l1.972-1.044a.842.842 0 0 1 .999.157l1.735 1.794a.82.82 0 0 1 .165.893l-.925 2.168c.154.282.276.524.37.725.1.22.226.522.374.912l2.157.924a.824.824 0 0 1 .502.809l-.158 2.49a.828.828 0 0 1-.552.726l-2.042.726c-.06.282-.12.523-.185.727-.105.315-.224.625-.358.929l1.026 2.268a.82.82 0 0 1-.201.951l-1.951 1.743a.844.844 0 0 1-.956.115l-2.01-1.066a8.68 8.68 0 0 1-.973.44l-.878.33-.78 2.16a.835.835 0 0 1-.768.548l-2.28.052a.836.836 0 0 1-.803-.537L9.21 21.12a17.537 17.537 0 0 1-.931-.348 11.945 11.945 0 0 1-.742-.352l-2.28.975a.843.843 0 0 1-.906-.16l-1.687-1.583a.82.82 0 0 1-.186-.94l.98-2.135c-.13-.253-.25-.511-.362-.773-.13-.32-.25-.645-.36-.973l-2.148-.654a.828.828 0 0 1-.588-.82l.084-2.305a.825.825 0 0 1 .47-.713l2.254-1.082c.105-.383.196-.68.276-.898.114-.29.24-.575.377-.854L2.484 5.44a.82.82 0 0 1 .18-.948l1.686-1.59a.842.842 0 0 1 .9-.166l2.278.94c.252-.167.48-.303.686-.412.246-.13.575-.268.989-.415l.792-2.21a.835.835 0 0 1 .787-.55h2.513Zm-.588 1.652H11.37l-.726 2.033a.832.832 0 0 1-.52.508c-.524.174-.902.324-1.123.44a8.38 8.38 0 0 0-.888.564.844.844 0 0 1-.807.089L5.11 4.469l-.856.809.892 1.884a.816.816 0 0 1-.007.716c-.24.481-.402.836-.484 1.055a12.5 12.5 0 0 0-.324 1.106.828.828 0 0 1-.444.54L1.74 11.61l-.043 1.177 1.944.59a.83.83 0 0 1 .547.53c.192.577.346 1.002.456 1.268.146.338.308.67.485.992a.816.816 0 0 1 .023.727L4.25 18.86l.854.802 2.138-.915a.844.844 0 0 1 .724.029c.438.23.764.39.97.478.21.087.612.234 1.195.433a.832.832 0 0 1 .51.492l.849 2.245 1.111-.024.716-1.985a.832.832 0 0 1 .491-.495l1.245-.466a8.15 8.15 0 0 0 1.14-.552.844.844 0 0 1 .81-.01l1.892 1.002 1.064-.949-.931-2.055a.818.818 0 0 1-.001-.672c.218-.489.366-.857.44-1.092.073-.23.149-.563.222-.99a.827.827 0 0 1 .541-.64l1.978-.702.086-1.368-1.944-.833a.83.83 0 0 1-.452-.473 18.42 18.42 0 0 0-.454-1.132 13.22 13.22 0 0 0-.504-.953.818.818 0 0 1-.042-.727l.87-2.04-.916-.948-1.786.945a.844.844 0 0 1-.76.016 13.55 13.55 0 0 0-1.161-.511 8.623 8.623 0 0 0-1.028-.276.832.832 0 0 1-.61-.53l-.802-2.223.002.001Zm-.677 5.117c2.922 0 5.292 2.344 5.292 5.233 0 2.89-2.37 5.232-5.292 5.232-2.923 0-5.292-2.342-5.292-5.232S9.106 6.86 12.029 6.86v-.001Zm0 1.654c-2 0-3.622 1.601-3.622 3.58 0 1.977 1.621 3.58 3.622 3.58 1.999 0 3.62-1.603 3.62-3.58 0-1.979-1.62-3.58-3.62-3.58Z"/></svg>