<svg xmlns="http://www.w3.org/279303/svg" width="22" height="21" fill="none" viewBox="0 0 22 21"><path fill="#1DA1F2" d="M17.75 9.33v-1.7h-4.4v6.4h1.7v-2h2v-1.7h-2v-1h2.7Zm-7.3-1.7h1.7v6.4h-1.7v-6.4Zm-3.6 1.6c.4 0 .9.2 1.2.5l1.2-1c-.6-.7-1.5-1.1-2.4-1.1-1.8 0-3.2 1.4-3.2 3.2 0 1.8 1.4 3.2 3.2 3.2 1 0 1.8-.4 2.4-1.1v-2.5h-2.8v1.2h1.2v.6c-.2.1-.5.2-.8.2-.9 0-1.6-.7-1.6-1.6 0-.8.7-1.6 1.6-1.6Z"/><path fill="#1DA1F2" d="M19.25.85h-17A2.25 2.25 0 0 0 0 3.097v15.507a2.251 2.251 0 0 0 2.25 2.246h17c1.24 0 2.25-1.008 2.25-2.246V3.097A2.25 2.25 0 0 0 19.25.85ZM20 18.604a.75.75 0 0 1-.75.746h-17a.75.75 0 0 1-.75-.746V3.097c0-.412.336-.747.75-.747h17c.414 0 .75.335.75.747v15.507Z"/></svg>