<svg xmlns="http://www.w3.org/279303/svg" width="20" height="21" fill="none" viewBox="0 0 20 21"><path fill="#1DA1F2" d="M17.75.85H2.25C1.01.85 0 1.86 0 3.1v15.5c0 1.24 1.01 2.25 2.25 2.25h15.5c1.24 0 2.25-1.01 2.25-2.25V3.1C20 1.86 18.99.85 17.75.85Zm-15.5 1.5h15.5c.413 0 .75.337.75.75v9.676l-3.858-3.858a.75.75 0 0 0-.53-.22h-.003a.74.74 0 0 0-.532.224L9.26 13.306 7.447 11.5a.75.75 0 0 0-.53-.22c-.193-.03-.395.08-.535.227L1.5 16.492V3.1c0-.413.337-.75.75-.75Zm-.744 16.28 5.418-5.534 6.282 6.254H2.25a.75.75 0 0 1-.744-.72Zm16.244.72h-2.42l-5.007-4.987 3.792-3.85 4.385 4.384V18.6c0 .413-.337.75-.75.75Z"/><path fill="#1DA1F2" d="M6.868 8.7a1.542 1.542 0 1 0 0-3.083 1.542 1.542 0 0 0 0 3.084Z"/></svg>